<svg xmlns="http://www.w3.org/2000/svg" class="icon" viewBox="0 0 1024 1024" width="200" height="200" t="1600918280317" p-id="10001" version="1.1"><path fill="#515151" d="M 822.4 835.2 h -620.8 c -12.8 0 -25.6 -12.8 -25.6 -25.6 s 12.8 -25.6 25.6 -25.6 h 620.8 c 12.8 0 25.6 12.8 25.6 25.6 s -12.8 25.6 -25.6 25.6 Z m 0 -294.4 h -620.8 c -12.8 0 -25.6 -12.8 -25.6 -25.6 s 12.8 -25.6 25.6 -25.6 h 620.8 c 12.8 0 25.6 12.8 25.6 25.6 s -12.8 25.6 -25.6 25.6 Z m -537.6 -300.8 h -83.2 c -12.8 0 -25.6 -12.8 -25.6 -25.6 s 12.8 -25.6 25.6 -25.6 h 83.2 c 19.2 0 25.6 12.8 25.6 25.6 s -6.4 25.6 -25.6 25.6 Z m 537.6 0 h -441.6 c -12.8 0 -25.6 -12.8 -25.6 -25.6 s 12.8 -25.6 25.6 -25.6 h 435.2 c 12.8 0 25.6 12.8 25.6 25.6 s -6.4 25.6 -19.2 25.6 Z" p-id="10002" /></svg>