<svg xmlns="http://www.w3.org/2000/svg" class="icon" viewBox="0 0 1024 1024" width="200" height="200" t="1600949193038" p-id="3056" version="1.1"><path fill="#ff734c" d="M 511.889 131.845 c -201.84 0 -365.489 163.627 -365.489 365.489 c 0 201.863 163.649 365.49 365.489 365.49 s 365.489 -163.627 365.489 -365.49 C 877.378 295.471 713.73 131.845 511.889 131.845 L 511.889 131.845 Z M 690.072 395.901 L 462.657 624.7 c -0.814552 1.22592 -1.76316 2.39761 -2.84377 3.47924 c -8.93449 8.91197 -23.401 8.91197 -32.3129 0 L 314.433 515.113 c -8.91197 -8.91197 -8.91197 -23.3785 0 -32.3017 c 8.91197 -8.93449 23.3785 -8.93449 32.3119 0 l 96.5704 96.5704 l 214.444 -215.783 c 8.92323 -8.92323 23.3795 -8.92323 32.3129 0 C 698.984 372.511 698.984 386.978 690.072 395.901 L 690.072 395.901 Z M 690.072 395.901" p-id="3057" /></svg>