<svg xmlns="http://www.w3.org/2000/svg" class="icon" viewBox="0 0 1024 1024" width="200" height="200" t="1600949937883" p-id="10811" version="1.1"><path d="M 516.606 107.93 c -82.644 0 -149.719 65.518 -152.573 147.772 H 171.371 c -21.406 0 -38.92 17.385 -38.92 38.921 c 0 21.407 17.385 38.922 38.921 38.922 h 42.943 v 435.402 c 0 81.735 55.399 148.55 123.901 148.55 h 348.995 c 68.373 0 123.9 -66.426 123.9 -148.55 V 333.805 h 38.922 c 21.407 0 38.921 -17.386 38.921 -38.922 c 0 -21.407 -17.385 -38.922 -38.92 -38.922 H 668.918 c -2.466 -82.512 -69.67 -148.03 -152.313 -148.03 Z m -79.66 147.772 c 2.855 -42.165 37.236 -74.858 79.79 -74.858 s 76.934 32.823 79.4 74.858 h -159.19 Z m -98.86 589.012 c -24.261 0 -50.987 -31.138 -50.987 -75.767 V 333.805 h 450.97 v 435.53 c 0 44.5 -26.726 75.768 -50.988 75.768 H 338.086 v -0.39 Z m 0 0" p-id="10812" /><path d="M 390.37 751.173 c 17.774 0 32.435 -17.774 32.435 -40.09 V 482.356 c 0 -22.315 -14.531 -40.09 -32.434 -40.09 c -17.775 0 -32.435 17.775 -32.435 40.09 v 228.729 c 0 22.184 14.27 40.089 32.435 40.089 Z m 117.414 0 c 17.774 0 32.434 -17.774 32.434 -40.09 V 482.356 c 0 -22.315 -14.531 -40.09 -32.434 -40.09 c -17.774 0 -32.435 17.775 -32.435 40.09 v 228.729 c 0 22.184 14.66 40.089 32.435 40.089 Z m 123.51 0 c 17.774 0 32.435 -17.774 32.435 -40.09 V 482.356 c 0 -22.315 -14.53 -40.09 -32.435 -40.09 c -17.774 0 -32.434 17.775 -32.434 40.09 v 228.729 c 0 22.184 14.141 40.089 32.434 40.089 Z m 0 0" p-id="10813" /></svg>