<svg xmlns="http://www.w3.org/2000/svg" class="icon" viewBox="0 0 1024 1024" width="200" height="200" t="1600847146343" p-id="7215" version="1.1"><path d="M 678.7 496.2 c 18.3 -5.1 41.6 -12.1 71.1 -21.6 c 238.8 -76.6 209 -373.3 209 -373.3 H 773.4 V 64 H 250.6 v 37.3 H 65.2 s -30.1 297.8 209 373.3 c 29.3 9.3 52.5 16.2 70.9 21.2 c 36.2 44 80.8 75.3 129.6 86.1 v 267.2 c -126.6 7.8 -224 54.4 -224 110.8 h 522.8 c 0 -56.4 -97.4 -103 -224 -110.8 v -267 c 48.5 -10.8 93 -41.9 129.2 -85.9 Z m 94.6 -271.4 v -86.1 H 923 c -0.5 74.1 -19.9 247.7 -184.4 300.5 c -9.4 3 -17.7 5.6 -25.7 8.1 c 37.6 -64.7 60.4 -144.2 60.4 -222.5 Z M 285.4 439.1 C 120.7 387 101.6 212.8 101.1 138.7 h 149.5 v 86.1 c 0 78.3 22.7 157.8 60.5 222.3 c -7.9 -2.5 -16.3 -5.1 -25.7 -8 Z M 512 394.4 l -115.4 80.3 l 40.7 -134.5 l -112 -85 l 140.5 -2.8 L 512 119.6 l 46.2 132.7 l 140.5 2.8 l -112 85 l 40.7 134.5 L 512 394.4 Z" p-id="7216" /></svg>