<svg xmlns="http://www.w3.org/2000/svg" class="icon" viewBox="0 0 1024 1024" width="200" height="200" t="1597824134251" p-id="2707" version="1.1"><path fill="#ffffff" d="M 213.504 358.912 c -11.392 0 -20.8213 -8.96 -21.2907 -20.4373 L 192 328.491 c 0 -157.099 143.531 -284.885 320 -284.885 s 320 127.787 320 284.885 l -0.170667 7.46667 c -0.341333 11.7333 -10.1547 21.76 -21.9733 21.8027 c -11.7333 -0.341333 -21.0773 -9.00267 -20.736 -20.7787 L 789.333 328.491 c 0 -133.547 -124.416 -242.219 -277.333 -242.219 S 234.667 194.944 234.667 328.491 l 0.170667 8.192 C 235.349 348.459 226.176 358.4 214.4 358.869 C 214.144 358.912 213.845 358.912 213.504 358.912 Z M 597.205 881.195 c -10.5387 0 -19.7547 -7.85067 -21.12 -18.6453 c -1.49333 -11.648 6.74133 -22.3573 18.4747 -23.8933 c 78.1653 -10.0267 151.595 -73.7707 174.549 -151.509 c 3.37067 -11.3067 15.232 -17.664 26.496 -14.4213 c 11.3067 3.328 17.7493 15.1893 14.4213 26.496 c -27.9467 94.72 -114.347 169.472 -210.048 181.76 C 599.04 881.152 598.144 881.195 597.205 881.195 Z M 511.957 983.424 c -58.7947 0 -106.624 -47.8293 -106.624 -106.667 s 47.8293 -106.667 106.624 -106.667 c 58.8373 0 106.709 47.8293 106.709 106.667 S 570.795 983.424 511.957 983.424 Z M 511.957 812.757 c -35.2853 0 -63.9573 28.7147 -63.9573 64 s 28.672 64 63.9573 64 c 35.328 0 64.0427 -28.7147 64.0427 -64 S 547.285 812.757 511.957 812.757 Z M 277.632 724.651 L 223.744 724.651 c -99.8827 0 -181.163 -85.9733 -181.163 -191.573 c 0 -105.6 81.2373 -191.531 181.12 -191.573 l 53.9307 0 c 11.776 0 21.3333 9.55733 21.3333 21.3333 l 0 340.48 C 298.965 715.136 289.451 724.651 277.632 724.651 Z M 223.744 384.171 c -76.3733 0 -138.496 66.816 -138.496 148.907 c 0 82.1333 62.1227 148.907 138.453 148.907 l 32.5973 0 l 0 -297.813 L 223.744 384.171 Z M 799.232 704.512 l -53.8027 0 c -11.776 0 -21.3333 -9.55733 -21.3333 -21.3333 L 724.096 341.931 c 0 -11.776 9.55733 -21.3333 21.3333 -21.3333 l 53.76 0 c 99.7547 0 180.907 86.144 180.907 192 C 980.139 618.411 898.987 704.512 799.232 704.512 Z M 766.805 661.845 l 32.4693 0 c 76.2027 0 138.197 -66.944 138.197 -149.291 s -61.9947 -149.291 -138.197 -149.333 l -32.4693 0 L 766.805 661.845 Z" p-id="2708" /></svg>