<svg xmlns="http://www.w3.org/2000/svg" class="icon" viewBox="0 0 1025 1024" width="200" height="200" t="1597824099890" p-id="2563" version="1.1"><path fill="#ffffff" d="M 96.256 636.032 l 192 0 c 17.664 0 32 -14.336 32 -32 s -14.336 -32 -32 -32 l -192 0 c -17.664 0 -32 14.336 -32 32 S 78.592 636.032 96.256 636.032 Z M 1015.04 903.424 l -110.208 -110.208 c 34.112 -43.52 55.36 -97.6 55.36 -157.248 c 0 -141.376 -114.624 -256 -256 -256 s -256 114.624 -256 256 s 114.624 256 256 256 c 59.648 0 113.728 -21.248 157.248 -55.36 l 110.208 110.208 c 12.032 11.968 31.36 11.968 43.392 0 C 1027.01 934.784 1027.01 915.456 1015.04 903.424 Z M 841.408 770.048 c -0.576 0.512 -1.344 0.704 -1.856 1.28 s -0.768 1.344 -1.28 1.856 c -34.624 33.792 -81.792 54.784 -134.08 54.784 c -106.048 0 -192 -85.952 -192 -192 s 85.952 -192 192 -192 s 192 85.952 192 192 C 896.256 688.256 875.264 735.424 841.408 770.048 Z M 96.256 252.032 l 576 0 c 17.664 0 32 -14.336 32 -32 s -14.336 -32 -32 -32 l -576 0 c -17.664 0 -32 14.336 -32 32 S 78.592 252.032 96.256 252.032 Z M 352.256 380.032 l -256 0 c -17.664 0 -32 14.336 -32 32 s 14.336 32 32 32 l 256 0 c 17.664 0 32 -14.336 32 -32 S 369.92 380.032 352.256 380.032 Z M 352.256 764.032 l -256 0 c -17.664 0 -32 14.336 -32 32 s 14.336 32 32 32 l 256 0 c 17.664 0 32 -14.336 32 -32 S 369.92 764.032 352.256 764.032 Z" p-id="2564" /></svg>