<svg xmlns="http://www.w3.org/2000/svg" class="icon" viewBox="0 0 1024 1024" width="200" height="200" t="1600842275942" p-id="3407" version="1.1"><path d="M 512.261 1024 C 234.774 1024 8.9596 794.338 8.9596 512.04 C 8.9596 229.743 234.774 0.040088 512.261 0.040088 C 789.788 0.040088 1015.56 229.743 1015.56 512.04 C 1015.56 794.338 789.788 1024 512.261 1024 Z M 512.261 53.9981 C 263.997 53.9981 62.0357 259.448 62.0357 512 C 62.0357 764.593 263.997 970.042 512.261 970.042 C 760.604 970.042 962.526 764.593 962.526 512 C 962.526 259.448 760.564 53.9981 512.261 53.9981 Z M 676.66 794.257 C 669.645 801.393 661.387 807.005 651.966 811.094 C 642.505 815.223 632.363 817.268 621.5 817.268 L 407.552 817.268 C 396.688 817.268 386.546 815.223 377.085 811.094 C 367.664 807.005 359.406 801.393 352.391 794.257 C 345.376 787.122 339.843 778.904 335.795 769.604 C 331.786 760.303 329.781 750.281 329.781 739.458 L 329.781 291.558 C 329.781 280.774 331.786 270.592 335.795 261.091 C 339.843 251.55 345.376 243.252 352.391 236.117 C 359.406 229.021 367.664 223.369 377.085 219.28 C 386.546 215.151 396.688 213.106 407.552 213.106 L 621.5 213.106 C 632.363 213.106 642.505 215.151 651.966 219.28 C 661.387 223.369 669.645 229.021 676.66 236.117 C 683.676 243.252 689.208 251.55 693.256 261.091 C 697.265 270.592 699.27 280.774 699.27 291.558 L 699.27 739.458 C 699.27 750.281 697.265 760.303 693.256 769.604 C 689.208 778.904 683.676 787.122 676.66 794.257 Z M 492.217 783.233 C 498.47 789.928 505.806 793.255 514.225 793.255 C 523.084 793.255 530.5 789.928 536.514 783.233 C 542.567 776.539 545.573 768.641 545.573 759.582 C 545.573 750.041 542.567 742.063 536.514 735.569 C 530.5 729.115 523.084 725.868 514.225 725.868 C 505.806 725.868 498.47 729.115 492.217 735.569 C 486.003 742.063 482.876 750.041 482.876 759.582 C 482.876 768.641 486.003 776.539 492.217 783.233 Z M 559.404 259.448 C 557.439 257.483 555.235 256.561 552.789 256.561 L 476.262 256.561 C 474.257 256.561 472.133 257.483 469.928 259.448 C 467.723 261.412 466.601 264.098 466.601 267.545 C 466.601 271.033 467.603 273.719 469.647 275.643 C 471.612 277.607 473.816 278.569 476.262 278.569 L 552.789 278.569 C 555.235 278.569 557.439 277.607 559.404 275.643 C 561.448 273.719 562.45 271.033 562.45 267.545 C 562.45 264.098 561.448 261.412 559.404 259.448 Z M 650.443 322.666 L 378.007 322.666 L 378.007 707.708 L 650.443 707.708 L 650.443 322.666 Z" p-id="3408" /></svg>